<?xml version="1.0" standalone="no"?><!DOCTYPE svg PUBLIC "-//W3C//DTD SVG 1.1//EN" "http://www.w3.org/Graphics/SVG/1.1/DTD/svg11.dtd"><svg t="1770950392234" class="icon" viewBox="0 0 1024 1024" version="1.1" xmlns="http://www.w3.org/2000/svg" p-id="5721" xmlns:xlink="http://www.w3.org/1999/xlink" width="64" height="64"><path d="M42.7 42.3l318.4-0.3c26.9 0 51.8 56.3 65.5 85.7l42.7 85.4H0V85c0-17.3 18.4-42.7 42.7-42.7z" p-id="5722" fill="#cec862"></path><path d="M1024 238.4c0-68.1-27.9-68-85.3-68H0v726.1C0 952.8 23.4 982 85.4 982h853.3c57.4 0 85.3-30.7 85.3-85.4V238.4z m-42.7 17.4v683.4H42.7V213.1h938.6v42.7z" p-id="5723" fill="#cec862"></path><path d="M128 384h768v42.7H128V384zM128 554.8h768v42.7H128v-42.7zM128 725.7h768v42.7H128v-42.7z" p-id="5724" fill="#cec862"></path></svg>